<svg viewBox="0 0 74 55" fill="none" xmlns="http://www.w3.org/2000/svg">
<path d="M8.2 37.32H22.76V41H3.92V14.6H8.2V37.32ZM28.6253 17.64C27.692 17.64 26.972 17.4133 26.4653 16.96C25.9853 16.48 25.7453 15.8133 25.7453 14.96C25.7453 14.1067 25.9853 13.4533 26.4653 13C26.972 12.5467 27.692 12.32 28.6253 12.32C29.532 12.32 30.2253 12.5467 30.7053 13C31.212 13.4533 31.4653 14.1067 31.4653 14.96C31.4653 15.8133 31.212 16.48 30.7053 16.96C30.2253 17.4133 29.532 17.64 28.6253 17.64ZM30.7453 21V41H26.4653V21H30.7453ZM47.3619 41.4C45.8152 41.4 44.4419 41.0133 43.2419 40.24C42.0685 39.44 41.1885 38.4133 40.6019 37.16L40.4019 41H36.6419V12H40.9219V24.28C41.5352 23.1867 42.4019 22.3067 43.5219 21.64C44.6419 20.9467 45.9619 20.6 47.4819 20.6C49.1085 20.6 50.5752 21.0133 51.8819 21.84C53.2152 22.6667 54.2685 23.8667 55.0419 25.44C55.8419 26.9867 56.2419 28.8533 56.2419 31.04C56.2419 33.2 55.8419 35.0533 55.0419 36.6C54.2685 38.1467 53.2019 39.3333 51.8419 40.16C50.5085 40.9867 49.0152 41.4 47.3619 41.4ZM46.4419 37.96C48.1752 37.96 49.5219 37.3467 50.4819 36.12C51.4685 34.8667 51.9619 33.16 51.9619 31C51.9619 28.84 51.4819 27.1467 50.5219 25.92C49.5619 24.6933 48.2152 24.08 46.4819 24.08C44.8019 24.08 43.4552 24.72 42.4419 26C41.4285 27.2533 40.9219 28.9467 40.9219 31.08C40.9219 33.2133 41.4285 34.8933 42.4419 36.12C43.4552 37.3467 44.7885 37.96 46.4419 37.96Z" fill="#1C1C1C"/>
<path d="M55.214 13.1242L67.0096 8.2687C68.174 7.76292 72.1227 6.14442 72.1227 6.14442C72.1227 6.14442 73.9452 5.43633 73.7933 7.15598C73.7427 7.86407 73.3377 10.3424 72.9327 13.023L71.6671 20.9638C71.6671 20.9638 71.5658 22.1271 70.7052 22.3294C69.8446 22.5317 68.4271 21.6213 68.174 21.419C67.9715 21.2673 64.3771 18.9912 63.0609 17.8785C62.7065 17.5751 62.3015 16.9681 63.1115 16.26C64.934 14.591 67.1108 12.5173 68.4271 11.2022C69.0346 10.5953 69.6421 9.1791 67.1108 10.8988L59.9728 15.7037C59.9728 15.7037 59.1628 16.2095 57.644 15.7542C56.1253 15.299 54.3534 14.6921 54.3534 14.6921C54.3534 14.6921 53.1384 13.9334 55.214 13.1242Z" fill="url(#paint0_linear)"/>
<defs>
<linearGradient id="paint0_linear" x1="67.2023" y1="8.72705" x2="63.6487" y2="18.7635" gradientUnits="userSpaceOnUse">
<stop stop-color="#37AEE2"/>
<stop offset="1" stop-color="#1E96C8"/>
</linearGradient>
</defs>
</svg>
