<svg viewBox="0 0 243 55" fill="none" xmlns="http://www.w3.org/2000/svg">
<path d="M8.64531 37.32H23.2053V41H4.36531V14.6H8.64531V37.32ZM29.0706 17.64C28.1373 17.64 27.4173 17.4133 26.9106 16.96C26.4306 16.48 26.1906 15.8133 26.1906 14.96C26.1906 14.1067 26.4306 13.4533 26.9106 13C27.4173 12.5467 28.1373 12.32 29.0706 12.32C29.9773 12.32 30.6706 12.5467 31.1506 13C31.6573 13.4533 31.9106 14.1067 31.9106 14.96C31.9106 15.8133 31.6573 16.48 31.1506 16.96C30.6706 17.4133 29.9773 17.64 29.0706 17.64ZM31.1906 21V41H26.9106V21H31.1906ZM47.8072 41.4C46.2605 41.4 44.8872 41.0133 43.6872 40.24C42.5139 39.44 41.6339 38.4133 41.0472 37.16L40.8472 41H37.0872V12H41.3672V24.28C41.9805 23.1867 42.8472 22.3067 43.9672 21.64C45.0872 20.9467 46.4072 20.6 47.9272 20.6C49.5539 20.6 51.0205 21.0133 52.3272 21.84C53.6605 22.6667 54.7139 23.8667 55.4872 25.44C56.2872 26.9867 56.6872 28.8533 56.6872 31.04C56.6872 33.2 56.2872 35.0533 55.4872 36.6C54.7139 38.1467 53.6472 39.3333 52.2872 40.16C50.9539 40.9867 49.4605 41.4 47.8072 41.4ZM46.8872 37.96C48.6205 37.96 49.9672 37.3467 50.9272 36.12C51.9139 34.8667 52.4072 33.16 52.4072 31C52.4072 28.84 51.9272 27.1467 50.9672 25.92C50.0072 24.6933 48.6605 24.08 46.9272 24.08C45.2472 24.08 43.9005 24.72 42.8872 26C41.8739 27.2533 41.3672 28.9467 41.3672 31.08C41.3672 33.2133 41.8739 34.8933 42.8872 36.12C43.9005 37.3467 45.2339 37.96 46.8872 37.96ZM77.3866 14.6V18.28H68.3466V41H64.0666V18.28H55.0266V14.6H77.3866ZM85.6934 41.4C83.6934 41.4 81.9334 40.9867 80.4134 40.16C78.9201 39.3333 77.7468 38.1467 76.8934 36.6C76.0401 35.0267 75.6134 33.16 75.6134 31C75.6134 28.84 76.0268 26.9867 76.8534 25.44C77.7068 23.8667 78.8668 22.6667 80.3334 21.84C81.8268 21.0133 83.5334 20.6 85.4534 20.6C87.4001 20.6 89.0534 21 90.4134 21.8C91.7734 22.6 92.8134 23.6933 93.5334 25.08C94.2534 26.4667 94.6134 28.04 94.6134 29.8C94.6134 30.3067 94.6001 30.7733 94.5734 31.2C94.5468 31.6267 94.5068 31.9867 94.4534 32.28H79.8134C80.0001 34.1467 80.6001 35.5733 81.6134 36.56C82.6534 37.52 83.9868 38 85.6134 38C86.9468 38 88.0268 37.7467 88.8534 37.24C89.6801 36.7333 90.3334 36.0267 90.8134 35.12L94.2134 36.72C93.5201 38.1867 92.4134 39.3333 90.8934 40.16C89.4001 40.9867 87.6668 41.4 85.6934 41.4ZM85.3734 24C83.9068 24 82.6934 24.4267 81.7334 25.28C80.8001 26.1333 80.2001 27.3733 79.9334 29H90.4534C90.3468 27.4 89.8401 26.1733 88.9334 25.32C88.0268 24.44 86.8401 24 85.3734 24ZM103.378 12V35.4C103.378 36.3867 103.552 37.0667 103.898 37.44C104.245 37.8133 104.818 38 105.618 38C106.098 38 106.498 37.9733 106.818 37.92C107.165 37.84 107.592 37.7067 108.098 37.52L107.618 40.72C106.685 41.1733 105.578 41.4 104.298 41.4C102.512 41.4 101.192 40.9467 100.338 40.04C99.5118 39.1333 99.0984 37.7067 99.0984 35.76V12H103.378ZM119.679 41.4C117.679 41.4 115.919 40.9867 114.399 40.16C112.906 39.3333 111.733 38.1467 110.879 36.6C110.026 35.0267 109.599 33.16 109.599 31C109.599 28.84 110.013 26.9867 110.839 25.44C111.693 23.8667 112.853 22.6667 114.319 21.84C115.813 21.0133 117.519 20.6 119.439 20.6C121.386 20.6 123.039 21 124.399 21.8C125.759 22.6 126.799 23.6933 127.519 25.08C128.239 26.4667 128.599 28.04 128.599 29.8C128.599 30.3067 128.586 30.7733 128.559 31.2C128.533 31.6267 128.493 31.9867 128.439 32.28H113.799C113.986 34.1467 114.586 35.5733 115.599 36.56C116.639 37.52 117.973 38 119.599 38C120.933 38 122.013 37.7467 122.839 37.24C123.666 36.7333 124.319 36.0267 124.799 35.12L128.199 36.72C127.506 38.1867 126.399 39.3333 124.879 40.16C123.386 40.9867 121.653 41.4 119.679 41.4ZM119.359 24C117.893 24 116.679 24.4267 115.719 25.28C114.786 26.1333 114.186 27.3733 113.919 29H124.439C124.333 27.4 123.826 26.1733 122.919 25.32C122.013 24.44 120.826 24 119.359 24ZM144.484 37.88C146.511 37.88 148.084 38.3333 149.204 39.24C150.324 40.12 150.884 41.3467 150.884 42.92C150.884 44.3333 150.444 45.5333 149.564 46.52C148.684 47.5333 147.484 48.2933 145.964 48.8C144.444 49.3333 142.724 49.6 140.804 49.6C137.498 49.6 135.058 49.0933 133.484 48.08C131.938 47.0667 131.164 45.8 131.164 44.28C131.164 43.3733 131.431 42.56 131.964 41.84C132.498 41.12 133.378 40.6267 134.604 40.36C133.858 40.04 133.271 39.6 132.844 39.04C132.418 38.4533 132.204 37.7067 132.204 36.8C132.204 35.92 132.458 35.1467 132.964 34.48C133.471 33.7867 134.218 33.2667 135.204 32.92C133.098 31.72 132.044 29.8667 132.044 27.36C132.044 25.3333 132.831 23.7067 134.404 22.48C135.978 21.2267 138.058 20.6 140.644 20.6C142.324 20.6 143.804 20.8667 145.084 21.4C145.298 20.0667 145.884 18.9733 146.844 18.12C147.804 17.24 149.018 16.8 150.484 16.8C150.618 16.8 150.724 16.8 150.804 16.8L151.484 20.16C151.351 20.1333 151.191 20.12 151.004 20.12C148.711 20.12 147.431 20.96 147.164 22.64C148.578 23.8667 149.284 25.44 149.284 27.36C149.284 29.4133 148.498 31.0533 146.924 32.28C145.351 33.5067 143.258 34.12 140.644 34.12C139.551 34.12 138.551 34.0267 137.644 33.84C136.924 34.0267 136.404 34.32 136.084 34.72C135.791 35.0933 135.644 35.4933 135.644 35.92C135.644 37.2267 136.591 37.88 138.484 37.88H144.484ZM140.644 23.6C139.418 23.6 138.391 23.9467 137.564 24.64C136.764 25.3067 136.364 26.2133 136.364 27.36C136.364 28.5067 136.764 29.4267 137.564 30.12C138.391 30.8133 139.418 31.16 140.644 31.16C141.898 31.16 142.924 30.8133 143.724 30.12C144.551 29.4267 144.964 28.5067 144.964 27.36C144.964 26.2133 144.551 25.3067 143.724 24.64C142.924 23.9467 141.898 23.6 140.644 23.6ZM140.804 46.4C142.991 46.4 144.604 46.1067 145.644 45.52C146.711 44.9333 147.244 44.24 147.244 43.44C147.244 42.8267 146.991 42.3333 146.484 41.96C146.004 41.5867 145.124 41.4 143.844 41.4H137.404C136.631 41.4 135.991 41.6 135.484 42C135.004 42.4 134.764 42.92 134.764 43.56C134.764 44.44 135.298 45.1333 136.364 45.64C137.431 46.1467 138.911 46.4 140.804 46.4ZM154.006 41V21H157.646L158.046 24.6C159.139 21.9333 161.233 20.6 164.326 20.6C164.726 20.6 165.126 20.64 165.526 20.72C165.926 20.7733 166.259 20.8667 166.526 21L165.926 24.76C165.633 24.6533 165.299 24.5733 164.926 24.52C164.579 24.44 164.099 24.4 163.486 24.4C162.633 24.4 161.806 24.6267 161.006 25.08C160.233 25.5067 159.579 26.1733 159.046 27.08C158.539 27.96 158.286 29.0667 158.286 30.4V41H154.006ZM180.899 28.16C180.899 26.8267 180.525 25.8 179.779 25.08C179.059 24.3333 178.059 23.96 176.779 23.96C175.579 23.96 174.539 24.24 173.659 24.8C172.805 25.36 172.192 26.2667 171.819 27.52L168.219 26C168.725 24.3733 169.712 23.0667 171.179 22.08C172.672 21.0933 174.592 20.6 176.939 20.6C178.512 20.6 179.912 20.8667 181.139 21.4C182.392 21.9067 183.365 22.6933 184.059 23.76C184.779 24.8 185.139 26.12 185.139 27.72V36.64C185.139 37.6267 185.632 38.12 186.619 38.12C187.099 38.12 187.565 38.0533 188.019 37.92L187.779 40.88C187.165 41.1733 186.392 41.32 185.459 41.32C184.392 41.32 183.472 41.08 182.699 40.6C181.925 40.12 181.405 39.4 181.139 38.44C180.499 39.4267 179.579 40.1733 178.379 40.68C177.179 41.16 175.979 41.4 174.779 41.4C172.885 41.4 171.312 40.9467 170.059 40.04C168.805 39.1333 168.179 37.7733 168.179 35.96C168.179 34.4933 168.659 33.28 169.619 32.32C170.605 31.36 171.992 30.6933 173.779 30.32L180.899 28.92V28.16ZM172.499 35.64C172.499 36.3867 172.779 36.9867 173.339 37.44C173.925 37.8667 174.699 38.08 175.659 38.08C176.565 38.08 177.419 37.9333 178.219 37.64C179.019 37.3467 179.659 36.8667 180.139 36.2C180.645 35.5333 180.899 34.6667 180.899 33.6V31.92L175.859 32.96C174.712 33.1733 173.859 33.48 173.299 33.88C172.765 34.28 172.499 34.8667 172.499 35.64ZM191.351 41V21H195.151L195.351 24.36C196.045 23.08 196.965 22.1333 198.111 21.52C199.285 20.9067 200.525 20.6 201.831 20.6C203.271 20.6 204.591 20.9333 205.791 21.6C207.018 22.24 207.938 23.2133 208.551 24.52C208.978 23.64 209.565 22.9067 210.311 22.32C211.058 21.7333 211.885 21.3067 212.791 21.04C213.698 20.7467 214.591 20.6 215.471 20.6C216.751 20.6 217.951 20.8667 219.071 21.4C220.191 21.9333 221.098 22.7467 221.791 23.84C222.485 24.9333 222.831 26.3333 222.831 28.04V41H218.551V28.72C218.551 27.0667 218.151 25.8933 217.351 25.2C216.578 24.48 215.605 24.12 214.431 24.12C213.045 24.12 211.831 24.64 210.791 25.68C209.751 26.6933 209.231 28.1733 209.231 30.12V41H204.951V28.72C204.951 27.0667 204.551 25.8933 203.751 25.2C202.978 24.48 202.005 24.12 200.831 24.12C200.031 24.12 199.231 24.3333 198.431 24.76C197.631 25.1867 196.965 25.8533 196.431 26.76C195.898 27.6667 195.631 28.8667 195.631 30.36V41H191.351Z" fill="#1C1C1C"/>
<path d="M224.214 13.1242L236.01 8.2687C237.174 7.76292 241.123 6.14442 241.123 6.14442C241.123 6.14442 242.945 5.43633 242.793 7.15598C242.743 7.86407 242.338 10.3424 241.933 13.023L240.667 20.9638C240.667 20.9638 240.566 22.1271 239.705 22.3294C238.845 22.5317 237.427 21.6213 237.174 21.419C236.971 21.2673 233.377 18.9912 232.061 17.8785C231.706 17.5751 231.301 16.9681 232.111 16.26C233.934 14.591 236.111 12.5173 237.427 11.2022C238.035 10.5953 238.642 9.1791 236.111 10.8988L228.973 15.7037C228.973 15.7037 228.163 16.2095 226.644 15.7542C225.125 15.299 223.353 14.6921 223.353 14.6921C223.353 14.6921 222.138 13.9334 224.214 13.1242V13.1242Z" fill="url(#paint0_linear)"/>
<defs>
<linearGradient id="paint0_linear" x1="236.202" y1="8.72705" x2="232.649" y2="18.7635" gradientUnits="userSpaceOnUse">
<stop stop-color="#37AEE2"/>
<stop offset="1" stop-color="#1E96C8"/>
</linearGradient>
</defs>
</svg>
